# Blender v2.80 (sub 61) OBJ File: ''
# www.blender.org
mtllib Hut_Roof.mtl
o house.001
v -8.526650 48.531998 16.865808
v -6.260480 48.531998 17.571808
v -5.783960 48.531998 16.042109
v -8.050140 48.531998 15.336207
v 4.400099 45.213593 30.888805
v -18.710699 45.213600 2.019167
v 10.553598 45.213596 11.135607
v 10.553598 44.846096 11.135607
v -18.710699 44.846100 2.019167
v 4.400099 44.846092 30.888805
v -24.864302 44.846096 21.772408
v -24.864302 45.213596 21.772408
vt 0.711680 0.399055
vt 0.711679 0.341693
vt 0.749394 0.341693
vt 0.749393 0.399055
vt 0.974047 0.000001
vt 0.487025 0.000000
vt 0.487024 0.740750
vt 0.974047 0.740748
vt 0.982698 0.000000
vt 0.982698 0.740748
vt 0.487024 0.000001
vt 0.487024 0.740749
vt 0.000002 0.740750
vt 0.000000 0.000000
vt 0.982698 0.740750
vt 0.982698 0.000000
vt 0.991349 0.000000
vt 0.991349 0.740750
vt 0.991349 0.000000
vt 1.000000 0.000000
vt 1.000000 0.500001
vt 0.991349 0.500001
vt 0.991349 0.500001
vt 1.000000 0.500001
vt 1.000000 1.000000
vt 0.991349 1.000000
vn -0.1072 0.9907 0.0834
vn 0.0409 0.9907 0.1295
vn 0.1072 0.9907 -0.0834
vn -0.0409 0.9907 -0.1295
vn 0.7714 0.4959 -0.3988
vn 0.4084 0.4959 0.7664
vn -0.7714 0.4959 0.3988
vn -0.4084 0.4959 -0.7664
vn 0.2974 0.0000 -0.9547
vn -0.0000 -1.0000 -0.0000
vn -0.2974 0.0000 0.9547
vn -0.9547 0.0000 -0.2974
vn 0.9547 0.0000 0.2974
usemtl default_house
s 1
f 1/1/1 2/2/2 3/3/3 4/4/4
f 7/5/5 3/3/3 2/2/2 5/6/6
f 5/6/6 2/2/2 1/1/1 12/7/7
f 12/7/7 1/1/1 4/4/4 6/8/8
f 6/8/8 4/4/4 3/3/3 7/5/5
usemtl default_walls
f 6/8/8 7/5/5 8/9/9 9/10/9
f 9/11/10 8/12/10 10/13/10 11/14/10
f 11/15/11 10/16/11 5/17/6 12/18/7
f 11/19/12 12/20/7 6/21/8 9/22/12
f 8/23/13 7/24/5 5/25/6 10/26/13
