# Blender v2.80 (sub 75) OBJ File: ''
# www.blender.org
mtllib HutBottom.mtl
o house.001_house.003
v 13.075151 10.298489 9.134336
v 15.373293 10.298489 9.126751
v 15.377102 10.298489 10.281627
v 13.078961 10.298489 10.289208
v -15.338053 10.298496 -8.993971
v -15.360405 8.726698 -9.007118
v -15.364742 8.726698 -10.321751
v -15.342377 10.298496 -10.306684
v 15.313189 10.298495 -9.095028
v 15.308859 10.298495 -10.407738
v 15.331219 8.726697 -10.422960
v 15.335551 8.726697 -9.108331
v 13.078961 10.298489 10.289208
v 15.377102 10.298489 10.281627
v 15.399516 8.726690 10.296687
v 13.098033 8.726690 10.304276
v -13.520360 10.298496 -10.312691
v -15.342377 10.298496 -10.306684
v -15.364742 8.726698 -10.321751
v -13.540066 8.726698 -10.327765
v 13.010727 10.298495 -10.400160
v 13.029732 8.726697 -10.415373
v -15.274222 10.298490 10.382750
v -13.452196 10.298490 10.376737
v -13.471715 8.726691 10.391894
v -15.296390 8.726691 10.397912
v -15.278027 10.298490 9.227870
v -13.456001 10.298490 9.221857
v -13.452196 10.298490 10.376737
v -15.274222 10.298490 10.382750
v 15.308859 10.298495 -10.407738
v 15.331219 8.726697 -10.422960
v -13.520360 10.298496 -10.312691
v 13.010727 10.298495 -10.400160
v 13.015055 10.298495 -9.087450
v -13.516035 10.298496 -8.999979
v -15.342377 10.298496 -10.306684
v -15.338053 10.298496 -8.993971
v 15.373293 10.298489 9.126751
v 15.395704 8.726690 9.140122
v -15.278027 10.298490 9.227870
v -15.300205 8.726693 9.241344
v 15.308859 10.298495 -10.407738
v 15.313189 10.298495 -9.095028
v -15.274222 10.298490 10.382750
v -15.296390 8.726691 10.397912
v 15.377102 10.298489 10.281627
v 15.399516 8.726690 10.296687
v 13.094219 8.726690 9.147711
v 15.395704 8.726690 9.140122
v 15.399516 8.726690 10.296687
v 13.098033 8.726690 10.304276
v 13.976013 10.407391 9.917200
v 14.998772 10.407391 9.913835
v 14.994950 10.407391 8.757410
v 13.972190 10.407391 8.760777
v 13.972190 10.407391 8.760777
v 14.994950 10.407391 8.757410
v 14.994948 -0.006109 8.757408
v 13.972189 -0.006109 8.760774
v 13.972189 -0.006109 8.760774
v 14.994948 -0.006109 8.757408
v 14.998770 -0.006110 9.913831
v 13.976011 -0.006110 9.917197
v 13.976011 -0.006110 9.917197
v 14.998770 -0.006110 9.913831
v 14.998772 10.407391 9.913835
v 13.976013 10.407391 9.917200
v 13.976011 -0.006110 9.917197
v 13.976013 10.407391 9.917200
v 13.972190 10.407391 8.760777
v 13.972189 -0.006109 8.760774
v 14.994948 -0.006109 8.757408
v 14.994950 10.407391 8.757410
v 14.998772 10.407391 9.913835
v 14.998770 -0.006110 9.913831
v 13.913805 10.407397 -8.941950
v 14.936563 10.407397 -8.945314
v 14.932802 10.407397 -10.101547
v 13.910013 10.407397 -10.098173
v 13.910013 10.407397 -10.098173
v 14.932802 10.407397 -10.101547
v 14.932801 -0.006103 -10.101550
v 13.910012 -0.006103 -10.098175
v 13.910012 -0.006103 -10.098175
v 14.932801 -0.006103 -10.101550
v 14.936563 -0.006103 -8.945316
v 13.913804 -0.006103 -8.941952
v 13.913804 -0.006103 -8.941952
v 14.936563 -0.006103 -8.945316
v 14.936563 10.407397 -8.945314
v 13.913805 10.407397 -8.941950
v 13.913804 -0.006103 -8.941952
v 13.913805 10.407397 -8.941950
v 13.910013 10.407397 -10.098173
v 13.910012 -0.006103 -10.098175
v 14.932801 -0.006103 -10.101550
v 14.932802 10.407397 -10.101547
v 14.936563 10.407397 -8.945314
v 14.936563 -0.006103 -8.945316
v -14.528633 10.407392 10.011166
v -13.505755 10.407392 10.007763
v -13.509586 10.407392 8.851447
v -14.532365 10.407392 8.854818
v -14.532365 10.407392 8.854818
v -13.509586 10.407392 8.851447
v -13.509588 -0.006108 8.851444
v -14.532367 -0.006108 8.854815
v -14.532367 -0.006108 8.854815
v -13.509588 -0.006108 8.851444
v -13.505756 -0.006108 10.007761
v -14.528633 -0.006108 10.011162
v -14.528633 -0.006108 10.011162
v -13.505756 -0.006108 10.007761
v -13.505755 10.407392 10.007763
v -14.528633 10.407392 10.011166
v -14.528633 -0.006108 10.011162
v -14.528633 10.407392 10.011166
v -14.532365 10.407392 8.854818
v -14.532367 -0.006108 8.854815
v -13.509588 -0.006108 8.851444
v -13.509586 10.407392 8.851447
v -13.505755 10.407392 10.007763
v -13.505756 -0.006108 10.007761
v -14.590762 10.407398 -8.847914
v -13.567978 10.407398 -8.851276
v -13.571803 10.407398 -10.007574
v -14.594585 10.407398 -10.004212
v -14.594585 10.407398 -10.004212
v -13.571803 10.407398 -10.007574
v -13.571804 -0.006101 -10.007578
v -14.594587 -0.006101 -10.004215
v -14.594587 -0.006101 -10.004215
v -13.571804 -0.006101 -10.007578
v -13.567980 -0.006101 -8.851280
v -14.590763 -0.006101 -8.847916
v -14.590763 -0.006101 -8.847916
v -13.567980 -0.006101 -8.851280
v -13.567978 10.407398 -8.851276
v -14.590762 10.407398 -8.847914
v -14.590763 -0.006101 -8.847916
v -14.590762 10.407398 -8.847914
v -14.594585 10.407398 -10.004212
v -14.594587 -0.006101 -10.004215
v -13.571804 -0.006101 -10.007578
v -13.571803 10.407398 -10.007574
v -13.567978 10.407398 -8.851276
v -13.567980 -0.006101 -8.851280
v -0.879009 10.407391 9.966125
v 0.143676 10.407391 9.962784
v 0.139893 10.407392 8.806452
v -0.882839 10.407392 8.809808
v -0.882839 10.407392 8.809808
v 0.139893 10.407392 8.806452
v 0.139892 -0.006109 8.806449
v -0.882840 -0.006109 8.809805
v -0.882840 -0.006109 8.809805
v 0.139892 -0.006109 8.806449
v 0.143674 -0.006109 9.962780
v -0.879009 -0.006109 9.966122
v -0.879009 -0.006109 9.966122
v 0.143674 -0.006109 9.962780
v 0.143676 10.407391 9.962784
v -0.879009 10.407391 9.966125
v -0.879009 -0.006109 9.966122
v -0.879009 10.407391 9.966125
v -0.882839 10.407392 8.809808
v -0.882840 -0.006109 8.809805
v 0.139892 -0.006109 8.806449
v 0.139893 10.407392 8.806452
v 0.143676 10.407391 9.962784
v 0.143674 -0.006109 9.962780
v -0.941211 10.407397 -8.892910
v 0.081493 10.407397 -8.896289
v 0.077687 10.407398 -10.052593
v -0.945029 10.407398 -10.049220
v -0.945029 10.407398 -10.049220
v 0.077687 10.407398 -10.052593
v 0.077686 -0.006102 -10.052597
v -0.945030 -0.006102 -10.049223
v -0.945030 -0.006102 -10.049223
v 0.077686 -0.006102 -10.052597
v 0.081492 -0.006102 -8.896293
v -0.941213 -0.006102 -8.892914
v -0.941213 -0.006102 -8.892914
v 0.081492 -0.006102 -8.896293
v 0.081493 10.407397 -8.896289
v -0.941211 10.407397 -8.892910
v -0.941213 -0.006102 -8.892914
v -0.941211 10.407397 -8.892910
v -0.945029 10.407398 -10.049220
v -0.945030 -0.006102 -10.049223
v 0.077686 -0.006102 -10.052597
v 0.077687 10.407398 -10.052593
v 0.081493 10.407397 -8.896289
v 0.081492 -0.006102 -8.896293
v -15.300205 8.726693 9.241344
v -13.475529 8.726693 9.235327
v -13.471715 8.726691 10.391894
v -15.296390 8.726691 10.397912
v -13.540066 8.726698 -10.327765
v 13.029732 8.726697 -10.415373
v 13.034065 8.726697 -9.100742
v -13.535728 8.726698 -9.013135
v -15.364742 8.726698 -10.321751
v -15.360405 8.726698 -9.007118
v 15.331219 8.726697 -10.422960
v 15.335551 8.726697 -9.108331
vt 0.474249 0.684210
vt 0.474249 0.739668
vt 0.449211 0.739668
vt 0.449211 0.684210
vt 1.000000 0.032043
vt 0.965921 0.031724
vt 0.965921 0.000000
vt 1.000000 0.000365
vt 0.965921 0.532044
vt 0.965921 0.500366
vt 1.000000 0.500000
vt 1.000000 0.531724
vt 0.931843 0.055998
vt 0.931843 0.000540
vt 0.965921 0.000000
vt 0.965921 0.055539
vt 0.897765 0.044507
vt 0.897765 0.000539
vt 0.931843 0.000000
vt 0.931843 0.044033
vt 0.897765 0.684746
vt 0.931843 0.685206
vt 0.931843 0.740208
vt 0.931843 0.696239
vt 0.965921 0.696711
vt 0.965921 0.740744
vt 0.474248 0.000000
vt 0.474249 0.043969
vt 0.449210 0.043969
vt 0.449210 0.000000
vt 0.897765 0.740204
vt 0.931843 0.740745
vt 0.897765 0.043970
vt 0.897764 0.684210
vt 0.869304 0.684210
vt 0.869305 0.043970
vt 0.897765 0.000002
vt 0.869305 0.000002
vt 0.965921 0.971766
vt 1.000000 0.972090
vt 1.000000 0.471767
vt 0.965921 0.472090
vt 0.897764 0.739668
vt 0.869304 0.739668
vt 1.000000 0.499636
vt 0.965921 0.500000
vt 0.965921 0.999635
vt 1.000000 1.000000
vt 0.025075 0.685206
vt 0.025075 0.740745
vt 0.000000 0.740745
vt 0.000000 0.685206
vt 0.199565 0.740745
vt 0.221739 0.740745
vt 0.221739 0.768652
vt 0.199565 0.768652
vt 0.044348 0.992038
vt 0.022174 0.992038
vt 0.022174 0.740745
vt 0.044348 0.740745
vt 0.177391 0.740745
vt 0.199565 0.740745
vt 0.199565 0.768652
vt 0.177391 0.768652
vt 0.000000 0.740745
vt 0.022174 0.740745
vt 0.022174 0.992038
vt 0.000000 0.992038
vt 0.449210 0.990959
vt 0.449210 0.739668
vt 0.474282 0.739668
vt 0.474282 0.990959
vt 0.499354 0.739668
vt 0.499354 0.990959
vt 0.474282 0.990959
vt 0.474282 0.739668
vt 0.332609 0.768647
vt 0.310435 0.768647
vt 0.310434 0.740745
vt 0.332609 0.740746
vt 0.794394 0.990961
vt 0.772220 0.990961
vt 0.772220 0.739668
vt 0.794394 0.739668
vt 0.354783 0.768647
vt 0.332609 0.768647
vt 0.332609 0.740745
vt 0.354783 0.740745
vt 0.883091 0.990961
vt 0.860917 0.990961
vt 0.860917 0.739668
vt 0.883091 0.739668
vt 0.724976 0.990959
vt 0.724976 0.739668
vt 0.750044 0.739668
vt 0.750044 0.990959
vt 0.724976 0.739668
vt 0.724976 0.990959
vt 0.699909 0.990959
vt 0.699909 0.739668
vt 0.155215 0.740745
vt 0.177391 0.740745
vt 0.177391 0.768649
vt 0.155217 0.768650
vt 0.860917 0.990961
vt 0.838743 0.990961
vt 0.838743 0.739668
vt 0.860917 0.739668
vt 0.155213 0.768650
vt 0.133039 0.768650
vt 0.133039 0.740746
vt 0.155215 0.740745
vt 0.772220 0.990961
vt 0.750044 0.990961
vt 0.750044 0.739668
vt 0.772220 0.739668
vt 0.524424 0.739668
vt 0.524424 0.990959
vt 0.499354 0.990959
vt 0.499354 0.739668
vt 0.599632 0.739668
vt 0.599632 0.990959
vt 0.574563 0.990959
vt 0.574563 0.739668
vt 0.243913 0.768649
vt 0.221739 0.768649
vt 0.221739 0.740746
vt 0.243913 0.740745
vt 0.838743 0.990961
vt 0.816569 0.990961
vt 0.816569 0.739668
vt 0.838743 0.739668
vt 0.266088 0.768649
vt 0.243914 0.768649
vt 0.243913 0.740745
vt 0.266088 0.740746
vt 0.794394 0.739668
vt 0.816569 0.739668
vt 0.816569 0.990961
vt 0.794394 0.990961
vt 0.649771 0.990959
vt 0.649771 0.739668
vt 0.674840 0.739668
vt 0.674840 0.990959
vt 0.699909 0.739668
vt 0.699909 0.990959
vt 0.674840 0.990959
vt 0.674840 0.739668
vt 0.266089 0.740745
vt 0.288261 0.740745
vt 0.288261 0.768649
vt 0.266088 0.768649
vt 0.044348 0.740745
vt 0.066521 0.740745
vt 0.066521 0.992038
vt 0.044348 0.992038
vt 0.310434 0.768649
vt 0.288261 0.768649
vt 0.288261 0.740745
vt 0.310434 0.740745
vt 0.133039 0.992038
vt 0.110866 0.992038
vt 0.110866 0.740745
vt 0.133039 0.740745
vt 0.549494 0.990959
vt 0.549494 0.739668
vt 0.574563 0.739668
vt 0.574563 0.990959
vt 0.549494 0.739668
vt 0.549494 0.990959
vt 0.524424 0.990959
vt 0.524424 0.739668
vt 0.376956 0.740745
vt 0.399129 0.740745
vt 0.399129 0.768649
vt 0.376956 0.768649
vt 0.088694 0.992038
vt 0.066521 0.992038
vt 0.066521 0.740745
vt 0.088694 0.740745
vt 0.376956 0.768649
vt 0.354783 0.768649
vt 0.354784 0.740745
vt 0.376956 0.740745
vt 0.110866 0.992038
vt 0.088694 0.992038
vt 0.088694 0.740745
vt 0.110866 0.740745
vt 0.599632 0.990959
vt 0.599633 0.739668
vt 0.624702 0.739668
vt 0.624702 0.990959
vt 0.649771 0.739668
vt 0.649771 0.990959
vt 0.624702 0.990959
vt 0.624702 0.739668
vt 0.025075 0.000001
vt 0.025075 0.044033
vt 0.000000 0.044034
vt 0.000000 0.000001
vt 0.449210 0.044033
vt 0.449210 0.685206
vt 0.420709 0.685206
vt 0.420708 0.044033
vt 0.449210 0.000000
vt 0.420708 0.000000
vt 0.449210 0.740745
vt 0.420709 0.740745
vn -0.0000 -1.0000 -0.0000
vn 0.9999 -0.0142 -0.0033
vn -0.9999 -0.0142 0.0033
vn -0.9999 -0.0143 0.0033
vn -0.0033 -0.0096 -0.9999
vn 0.0033 -0.0096 0.9999
vn 0.9999 -0.0141 -0.0033
vn 0.0000 1.0000 0.0000
vn -0.0033 0.0000 -1.0000
vn 0.0033 -0.0000 1.0000
vn -1.0000 0.0000 0.0033
vn 1.0000 -0.0000 -0.0033
vn -1.0000 0.0000 0.0032
usemtl default_house.002
s 1
f 1/1/1 2/2/1 3/3/1 4/4/1
f 5/5/2 6/6/2 7/7/2 8/8/2
f 9/9/3 10/10/4 11/11/4 12/12/3
f 13/13/5 14/14/5 15/15/5 16/16/5
f 17/17/6 18/18/6 19/19/6 20/20/6
f 21/21/6 17/17/6 20/20/6 22/22/6
f 23/23/5 24/24/5 25/25/5 26/26/5
f 27/27/1 28/28/1 29/29/1 30/30/1
f 31/31/6 21/21/6 22/22/6 32/32/6
f 24/24/5 13/13/5 16/16/5 25/25/5
f 28/28/1 1/1/1 4/4/1 29/29/1
f 33/33/1 34/34/1 35/35/1 36/36/1
f 37/37/1 33/33/1 36/36/1 38/38/1
f 39/39/3 9/9/3 12/12/3 40/40/3
f 41/41/7 42/42/7 6/6/2 5/5/2
f 34/34/1 43/43/1 44/44/1 35/35/1
f 45/45/7 46/46/7 42/42/7 41/41/7
f 47/47/3 39/39/3 40/40/3 48/48/3
f 38/38/1 36/36/1 28/28/1 27/27/1
f 35/35/1 44/44/1 2/2/1 1/1/1
usemtl default_walls.001
f 49/49/1 50/50/1 51/51/1 52/52/1
f 53/53/8 54/54/8 55/55/8 56/56/8
f 57/57/9 58/58/9 59/59/9 60/60/9
f 61/61/1 62/62/1 63/63/1 64/64/1
f 65/65/10 66/66/10 67/67/10 68/68/10
f 69/69/11 70/70/11 71/71/11 72/72/11
f 73/73/12 74/74/12 75/75/12 76/76/12
f 77/77/8 78/78/8 79/79/8 80/80/8
f 81/81/9 82/82/9 83/83/9 84/84/9
f 85/85/1 86/86/1 87/87/1 88/88/1
f 89/89/10 90/90/10 91/91/10 92/92/10
f 93/93/11 94/94/11 95/95/11 96/96/11
f 97/97/12 98/98/12 99/99/12 100/100/12
f 101/101/8 102/102/8 103/103/8 104/104/8
f 105/105/9 106/106/9 107/107/9 108/108/9
f 109/109/1 110/110/1 111/111/1 112/112/1
f 113/113/10 114/114/10 115/115/10 116/116/10
f 117/117/13 118/118/13 119/119/13 120/120/13
f 121/121/12 122/122/12 123/123/12 124/124/12
f 125/125/8 126/126/8 127/127/8 128/128/8
f 129/129/9 130/130/9 131/131/9 132/132/9
f 133/133/1 134/134/1 135/135/1 136/136/1
f 137/137/10 138/138/10 139/139/10 140/140/10
f 141/141/11 142/142/11 143/143/11 144/144/11
f 145/145/12 146/146/12 147/147/12 148/148/12
f 149/149/8 150/150/8 151/151/8 152/152/8
f 153/153/9 154/154/9 155/155/9 156/156/9
f 157/157/1 158/158/1 159/159/1 160/160/1
f 161/161/10 162/162/10 163/163/10 164/164/10
f 165/165/11 166/166/11 167/167/11 168/168/11
f 169/169/12 170/170/12 171/171/12 172/172/12
f 173/173/8 174/174/8 175/175/8 176/176/8
f 177/177/9 178/178/9 179/179/9 180/180/9
f 181/181/1 182/182/1 183/183/1 184/184/1
f 185/185/10 186/186/10 187/187/10 188/188/10
f 189/189/11 190/190/11 191/191/11 192/192/11
f 193/193/12 194/194/12 195/195/12 196/196/12
f 197/197/1 198/198/1 199/199/1 200/200/1
f 198/198/1 49/49/1 52/52/1 199/199/1
f 201/201/1 202/202/1 203/203/1 204/204/1
f 205/205/1 201/201/1 204/204/1 206/206/1
f 202/202/1 207/207/1 208/208/1 203/203/1
f 204/204/1 203/203/1 49/49/1 198/198/1
f 206/206/1 204/204/1 198/198/1 197/197/1
f 203/203/1 208/208/1 50/50/1 49/49/1
