# Blender v2.80 (sub 75) OBJ File: ''
# www.blender.org
mtllib HutRoof.mtl
o house.002
v -1.166795 25.551096 0.792440
v 1.206790 25.551096 0.784653
v 1.201495 25.551096 -0.817541
v -1.172069 25.551096 -0.809657
v 15.308861 22.232695 -10.407734
v 15.377102 22.232689 10.281629
v -15.274220 22.232695 10.382753
v -15.342376 22.232700 -10.306682
v 15.308861 21.865194 -10.407734
v -15.342376 21.865200 -10.306682
v 15.377102 21.865189 10.281629
v -15.274220 21.865194 10.382753
vt 0.711680 0.399055
vt 0.711679 0.341693
vt 0.749394 0.341693
vt 0.749393 0.399055
vt 0.974047 0.000001
vt 0.487025 0.000000
vt 0.487024 0.740750
vt 0.974047 0.740748
vt 0.982698 0.000000
vt 0.982698 0.740748
vt 0.487024 0.000001
vt 0.487024 0.740749
vt 0.000002 0.740750
vt 0.000000 0.000000
vt 0.982698 0.740750
vt 0.982698 0.000000
vt 0.991349 0.000000
vt 0.991349 0.740750
vt 0.991349 0.000000
vt 1.000000 0.000000
vt 1.000000 0.500001
vt 0.991349 0.500001
vt 0.991349 0.500001
vt 1.000000 0.500001
vt 1.000000 1.000000
vt 0.991349 1.000000
vn -0.0772 0.9907 0.1118
vn 0.0779 0.9907 0.1112
vn 0.0772 0.9907 -0.1118
vn -0.0779 0.9907 -0.1112
vn 0.6159 0.4959 -0.6122
vn 0.6199 0.4959 0.6082
vn -0.6159 0.4959 0.6122
vn -0.6199 0.4959 -0.6082
vn -0.0033 0.0000 -1.0000
vn -0.0000 -1.0000 -0.0000
vn 0.0033 0.0000 1.0000
vn -1.0000 0.0000 0.0033
vn 1.0000 0.0000 -0.0033
usemtl default_house.003
s 1
f 1/1/1 2/2/2 3/3/3 4/4/4
f 5/5/5 3/3/3 2/2/2 6/6/6
f 6/6/6 2/2/2 1/1/1 7/7/7
f 7/7/7 1/1/1 4/4/4 8/8/8
f 8/8/8 4/4/4 3/3/3 5/5/5
usemtl default_walls.003
f 8/8/8 5/5/5 9/9/9 10/10/9
f 10/11/10 9/12/10 11/13/10 12/14/10
f 12/15/11 11/16/11 6/17/6 7/18/7
f 12/19/12 7/20/7 8/21/8 10/22/12
f 9/23/13 5/24/5 6/25/6 11/26/13
