# Blender v2.80 (sub 61) OBJ File: ''
# www.blender.org
mtllib Rock.mtl
o rocks2.001
v 97.572899 8.501742 -10.117498
v 95.791298 9.996702 -9.758668
v 93.181198 8.885632 -8.145548
v 93.181198 6.632271 -7.403308
v 90.570999 9.996702 -9.758668
v 88.789497 8.501742 -10.117498
v 91.568001 11.794502 -12.368798
v 90.466904 11.526602 -14.509198
v 94.794296 11.794502 -12.368798
v 95.895401 11.526602 -14.509198
v 94.748802 10.850901 -9.560168
v 93.181198 10.183502 -8.591328
v 91.613602 10.850901 -9.560168
v 92.212303 11.930602 -11.127798
v 94.150002 11.930602 -11.127798
v 86.075302 3.607432 -11.794999
v 85.877296 6.359932 -13.092699
v 85.877296 6.359933 -15.925799
v 86.075302 3.607433 -17.223400
v 87.293800 8.914293 -16.801298
v 88.789497 8.501743 -18.900898
v 88.169296 10.493002 -14.509198
v 87.293800 8.914292 -12.217098
v 97.998299 6.142161 -8.524879
v 99.403999 3.607431 -9.393619
v 100.287003 3.607432 -11.794999
v 97.998299 1.072701 -8.524879
v 97.572899 -1.286868 -10.117500
v 95.723900 2.040871 -7.119200
v 93.181198 0.582572 -7.403310
v 95.723900 5.173991 -7.119199
v 85.939697 0.294082 -15.626200
v 85.939697 0.294082 -13.392200
v 87.056801 -1.720168 -12.701800
v 88.789497 -1.286868 -10.117500
v 87.747101 -2.965047 -14.509200
v 90.466904 -4.311738 -14.509201
v 87.056801 -1.720167 -16.316601
v 88.789497 -1.286867 -18.900900
v 90.257202 9.872574 -19.273699
v 93.181198 8.627884 -21.080898
v 93.181198 6.632274 -21.615099
v 96.105202 9.872574 -19.273699
v 97.572899 8.501743 -18.900898
v 94.988297 11.886503 -16.349699
v 91.374001 11.886503 -16.349699
v 88.570000 6.948063 -19.851398
v 86.717400 3.607433 -18.706398
v 88.570000 0.266783 -19.851400
v 91.567596 1.542814 -21.704000
v 93.181198 0.582574 -21.615101
v 91.567596 5.672054 -21.703999
v 98.909302 8.922873 -17.203098
v 100.573997 5.920683 -16.174099
v 100.287003 3.607433 -17.223400
v 100.573997 5.920682 -12.844299
v 98.909302 8.922872 -11.815298
v 97.880402 10.778402 -14.509198
v 98.588600 -1.709138 -11.060400
v 100.720001 2.134402 -12.377699
v 100.720001 2.134403 -16.640699
v 98.588600 -1.709137 -17.958000
v 97.572899 -1.286867 -18.900900
v 97.271202 -4.084597 -14.509201
v 95.895401 -4.311738 -14.509201
v 97.983597 0.914633 -20.409100
v 99.476898 3.607433 -19.486198
v 97.983597 6.300243 -20.409100
v 95.567398 5.271664 -21.902500
v 95.567398 1.943204 -21.902500
v 88.600304 0.797381 -9.012810
v 87.042000 3.607432 -9.975929
v 88.600304 6.417481 -9.012809
v 91.121803 5.344131 -7.454459
v 91.121803 1.870731 -7.454460
vt 0.756518 0.342595
vt 0.745470 0.283758
vt 0.799550 0.203456
vt 0.847512 0.207479
vt 0.755972 0.112725
vt 0.774189 0.054824
vt 0.674958 0.136957
vt 0.637878 0.095591
vt 0.270810 0.779660
vt 0.310871 0.822763
vt 0.310871 0.927567
vt 0.270810 0.956000
vt 0.626957 0.273445
vt 0.668467 0.242660
vt 0.739075 0.249320
vt 0.771556 0.201091
vt 0.745382 0.146601
vt 0.696726 0.161151
vt 0.692828 0.224636
vt 0.204277 0.634468
vt 0.172083 0.724496
vt 0.101287 0.724299
vt 0.068626 0.634091
vt 0.077731 0.810211
vt 0.023492 0.798704
vt 0.315110 0.601227
vt 0.270810 0.563396
vt 0.270811 0.469253
vt 0.315109 0.420848
vt 0.657626 0.021278
vt 0.728769 0.000000
vt 0.242981 0.799314
vt 0.192286 0.810529
vt 0.186005 0.000000
vt 0.249619 0.031229
vt 0.261179 0.105830
vt 0.208327 0.144049
vt 0.317955 0.166344
vt 0.317955 0.260892
vt 0.364743 0.246804
vt 0.354078 0.154874
vt 0.411231 0.099916
vt 0.475101 0.140686
vt 0.410432 0.027055
vt 0.473557 0.000000
vt 0.869473 0.292881
vt 0.822348 0.362856
vt 0.108700 0.525174
vt 0.164525 0.525329
vt 0.180454 0.460852
vt 0.242981 0.477799
vt 0.584444 0.247682
vt 0.626957 0.317995
vt 0.609352 0.388884
vt 0.541664 0.419929
vt 0.815248 0.436588
vt 0.882417 0.473868
vt 0.894100 0.547371
vt 0.843637 0.615189
vt 0.023492 0.477190
vt 0.090124 0.460601
vt 0.345300 0.494570
vt 0.382735 0.494368
vt 0.414324 0.602274
vt 0.392746 0.656639
vt 0.505560 0.594525
vt 0.529776 0.645001
vt 0.530355 0.481830
vt 0.567019 0.475739
vt 0.270810 0.601227
vt 0.313412 0.631641
vt 0.313412 0.750442
vt 0.638408 1.000000
vt 0.602843 0.957441
vt 0.602843 0.841197
vt 0.638408 0.825406
vt 0.000000 0.747285
vt 0.030807 0.634928
vt 0.000000 0.527833
vt 0.845922 0.672718
vt 0.765797 0.736689
vt 0.726249 0.708911
vt 0.345311 0.795164
vt 0.317963 0.746983
vt 0.350340 0.652433
vt 0.317955 0.541811
vt 0.579995 0.630694
vt 0.602843 0.711250
vt 0.567028 0.776331
vt 0.095259 0.242907
vt 0.085011 0.160352
vt 0.154367 0.099712
vt 0.140675 0.011351
vt 0.713387 0.381592
vt 0.633912 0.339178
vt 0.602843 0.526867
vt 0.300747 0.282976
vt 0.214656 0.191217
vt 0.125863 0.268852
vt 0.157077 0.408589
vt 0.135006 0.420848
vt 0.625307 0.588234
vt 0.602843 0.552758
vt 0.646039 0.420587
vt 0.680311 0.419929
vt 0.405880 0.419386
vt 0.371409 0.413966
vt 0.339102 0.278437
vt 0.072598 0.387074
vt 0.050728 0.289173
vt 0.000000 0.243534
vt 0.003056 0.159956
vt 0.504395 0.726920
vt 0.429003 0.733326
vt 0.402905 0.809540
vt 0.665686 0.737919
vt 0.610151 0.671522
vt 0.270810 0.546058
vt 0.248589 0.636009
vt 0.270810 0.730654
vt 0.827375 0.053429
vt 0.869473 0.141076
vt 0.525380 0.031350
vt 0.526266 0.112124
vt 0.589045 0.173556
vt 0.454445 0.419929
vt 0.062854 0.017379
vt 0.028453 0.109469
vt 0.133971 0.863506
vt 0.626957 0.130749
vt 0.587611 0.042861
vt 0.352784 0.036983
vt 0.317955 0.115979
vt 0.524891 0.799178
vt 0.462167 0.850239
vt 0.764456 0.825406
vt 0.894100 0.721899
vt 0.843751 0.816266
vt 0.265162 0.417320
vt 0.134471 0.420848
vn 0.5885 0.5412 0.6007
vn 0.5748 0.5502 0.6057
vn 0.0000 0.3189 0.9478
vn -0.0371 0.2886 0.9567
vn -0.5748 0.5501 0.6057
vn -0.6046 0.5093 0.6125
vn -0.3520 0.9332 0.0724
vn -0.3836 0.9233 0.0193
vn 0.3520 0.9332 0.0723
vn 0.3645 0.9310 0.0194
vn 0.3871 0.6808 0.6219
vn 0.0000 0.5255 0.8508
vn -0.3870 0.6808 0.6219
vn -0.2361 0.9357 0.2622
vn 0.2361 0.9357 0.2622
vn -0.9308 -0.0085 0.3653
vn -0.9497 0.2292 0.2136
vn -0.9497 0.2292 -0.2136
vn -0.9404 -0.0085 -0.3400
vn -0.7385 0.5613 -0.3735
vn -0.6177 0.5163 -0.5932
vn -0.6039 0.7971 0.0000
vn -0.7386 0.5613 0.3735
vn 0.6020 0.3477 0.7188
vn 0.8355 -0.0000 0.5495
vn 0.9281 0.0456 0.3694
vn 0.6020 -0.3477 0.7188
vn 0.4289 -0.6120 0.6644
vn 0.2369 -0.2069 0.9492
vn -0.0453 -0.4074 0.9121
vn 0.2369 0.2069 0.9492
vn -0.9483 -0.2443 -0.2025
vn -0.9483 -0.2443 0.2025
vn -0.7490 -0.5599 0.3542
vn -0.5173 -0.5879 0.6220
vn -0.6219 -0.7831 -0.0000
vn -0.2394 -0.9709 -0.0000
vn -0.7490 -0.5599 -0.3542
vn -0.5140 -0.6112 -0.6018
vn -0.4275 0.6578 -0.6201
vn 0.0000 0.4881 -0.8728
vn -0.0179 0.2840 -0.9586
vn 0.4275 0.6578 -0.6201
vn 0.6032 0.5306 -0.5955
vn 0.2622 0.9396 -0.2199
vn -0.2622 0.9396 -0.2199
vn -0.6001 0.3183 -0.7339
vn -0.8152 0.0000 -0.5792
vn -0.6001 -0.3183 -0.7339
vn -0.2646 -0.1888 -0.9457
vn -0.0217 -0.4228 -0.9060
vn -0.2646 0.1888 -0.9457
vn 0.7200 0.5631 -0.4055
vn 0.9513 0.2032 -0.2317
vn 0.9292 0.0456 -0.3668
vn 0.9513 0.2032 0.2317
vn 0.7200 0.5631 0.4055
vn 0.5728 0.8197 -0.0000
vn 0.6561 -0.5632 0.5023
vn 0.9507 -0.1178 0.2867
vn 0.9507 -0.1178 -0.2867
vn 0.6561 -0.5632 -0.5023
vn 0.4285 -0.6146 -0.6623
vn 0.4697 -0.8828 -0.0000
vn 0.0830 -0.9965 -0.0000
vn 0.6022 -0.3523 -0.7164
vn 0.8385 0.0000 -0.5449
vn 0.6022 0.3523 -0.7164
vn 0.2326 0.2097 -0.9497
vn 0.2326 -0.2097 -0.9497
vn -0.5956 -0.2767 0.7541
vn -0.7844 -0.0000 0.6202
vn -0.5956 0.2767 0.7541
vn -0.3025 0.1636 0.9390
vn -0.3025 -0.1636 0.9390
usemtl default_rocks2
s 1
f 1/1/1 2/2/2 3/3/3 4/4/4
f 4/4/4 3/3/3 5/5/5 6/6/6
f 6/6/6 5/5/5 7/7/7 8/8/8
f 8/9/8 7/10/7 9/11/9 10/12/10
f 10/13/10 9/14/9 2/2/2 1/1/1
f 2/2/2 11/15/11 12/16/12 3/3/3
f 3/3/3 12/16/12 13/17/13 5/5/5
f 5/5/5 13/17/13 14/18/14 7/7/7
f 7/7/7 14/18/14 15/19/15 9/14/9
f 9/14/9 15/19/15 11/15/11 2/2/2
f 16/20/16 17/21/17 18/22/18 19/23/19
f 19/23/19 18/22/18 20/24/20 21/25/21
f 21/26/21 20/27/20 22/28/22 8/29/8
f 8/8/8 22/30/22 23/31/23 6/6/6
f 6/32/6 23/33/23 17/21/17 16/20/16
f 1/34/1 24/35/24 25/36/25 26/37/26
f 26/37/26 25/36/25 27/38/27 28/39/28
f 28/40/28 27/41/27 29/42/29 30/43/30
f 30/43/30 29/42/29 31/44/31 4/45/4
f 4/4/4 31/46/31 24/47/24 1/1/1
f 19/23/19 32/48/32 33/49/33 16/20/16
f 16/20/16 33/49/33 34/50/34 35/51/35
f 35/52/35 34/53/34 36/54/36 37/55/37
f 37/56/37 36/57/36 38/58/38 39/59/39
f 39/60/39 38/61/38 32/48/32 19/23/19
f 21/62/21 40/63/40 41/64/41 42/65/42
f 42/65/42 41/64/41 43/66/43 44/67/44
f 44/67/44 43/66/43 45/68/45 10/69/10
f 10/70/10 45/71/45 46/72/46 8/9/8
f 8/73/8 46/74/46 40/75/40 21/76/21
f 21/25/21 47/77/47 48/78/48 19/23/19
f 19/23/19 48/78/48 49/79/49 39/60/39
f 39/59/39 49/80/49 50/81/50 51/82/51
f 51/83/51 50/84/50 52/85/52 42/65/42
f 42/65/42 52/85/52 47/86/47 21/62/21
f 44/67/44 53/87/53 54/88/54 55/89/55
f 55/90/55 54/91/54 56/92/56 26/37/26
f 26/37/26 56/92/56 57/93/57 1/34/1
f 1/1/1 57/94/57 58/95/58 10/13/10
f 10/69/10 58/96/58 53/87/53 44/67/44
f 28/39/28 59/97/59 60/98/60 26/37/26
f 26/37/26 60/98/60 61/99/61 55/90/55
f 55/90/55 61/99/61 62/100/62 63/101/63
f 63/102/63 62/103/62 64/104/64 65/105/65
f 65/106/65 64/107/64 59/108/59 28/40/28
f 63/101/63 66/109/66 67/110/67 55/90/55
f 55/90/55 67/110/67 68/111/68 44/112/44
f 44/67/44 68/113/68 69/114/69 42/65/42
f 42/65/42 69/114/69 70/115/70 51/83/51
f 51/82/51 70/116/70 66/117/66 63/102/63
f 35/51/35 71/118/71 72/119/72 16/20/16
f 16/20/16 72/119/72 73/120/73 6/32/6
f 6/6/6 73/121/73 74/122/74 4/4/4
f 4/45/4 74/123/74 75/124/75 30/43/30
f 30/43/30 75/124/75 71/125/71 35/52/35
f 43/66/43 41/64/41 40/63/40 46/126/46 45/68/45
f 58/127/58 57/93/57 56/92/56 54/91/54 53/128/53
f 20/24/20 18/22/18 17/21/17 23/33/23 22/129/22
f 14/18/14 13/17/13 12/16/12 11/15/11 15/19/15
f 35/52/35 37/55/37 65/106/65 28/40/28 30/43/30
f 72/130/72 71/125/71 75/124/75 74/123/74 73/131/73
f 24/132/24 31/44/31 29/42/29 27/41/27 25/133/25
f 37/56/37 39/59/39 51/82/51 63/102/63 65/105/65
f 68/113/68 67/134/67 66/135/66 70/115/70 69/114/69
f 52/136/52 50/81/50 49/80/49 48/137/48 47/138/47
f 60/98/60 59/97/59 64/139/64 62/100/62 61/99/61
f 32/48/32 38/61/38 36/140/36 34/50/34 33/49/33
